<svg width="247" height="85" viewBox="0 0 247 85" fill="none" xmlns="http://www.w3.org/2000/svg">
<path d="M18.036 58.816C23.436 58.816 27.756 55.036 27.756 46.558C27.756 38.08 24.3 33.598 18.036 33.598C11.718 33.598 8.208 38.08 8.208 46.558C8.208 55.036 11.826 58.816 18.036 58.816ZM18.036 65.242C7.02 65.242 0.81 58.492 0.81 46.396C0.81 34.246 7.02 26.956 18.036 26.956C29.052 26.956 35.154 34.246 35.154 46.558C35.154 58.87 29.052 65.242 18.036 65.242ZM66.6318 64H59.7198L44.3838 39.916V64H37.4178V28.144H45.3558L59.6118 51.202V28.144H66.6318V64ZM94.5941 64H69.3221V28.144H76.8281V57.466H94.5941V64ZM105.412 64H97.9062V50.446L85.4862 28.144H94.2342L101.794 42.724L108.76 28.144H117.4L105.412 50.554V64ZM126.287 57.898H135.791C139.247 57.898 141.299 55.684 141.299 52.768C141.299 49.636 139.247 48.232 135.899 48.232H126.287V57.898ZM135.305 34.354H126.287V42.13H135.737C138.707 42.13 140.273 40.78 140.273 38.242C140.273 35.488 138.815 34.354 135.305 34.354ZM135.197 64H119.051V28.144H136.709C143.729 28.144 147.509 31.924 147.509 37.918C147.509 40.996 145.619 43.588 143.135 44.614C146.159 45.748 148.589 48.178 148.589 53.308C148.589 59.842 144.215 64 135.197 64ZM177.274 64H150.058V28.144H176.41V34.408H157.348V42.076H174.898V48.394H157.348V57.628H177.274V64ZM206.015 64H178.799V28.144H205.151V34.408H186.089V42.076H203.639V48.394H186.089V57.628H206.015V64ZM234.971 38.728H227.843C227.465 35.056 225.251 33.274 220.715 33.274C216.503 33.274 214.289 34.786 214.289 37.486C214.289 39.754 215.855 41.05 219.851 42.022C223.901 42.994 227.843 43.966 230.489 45.154C233.621 46.558 236.105 48.772 236.105 53.848C236.105 61.732 230.165 65.242 221.795 65.242C212.939 65.242 206.783 61.3 206.621 53.254H213.857C213.965 56.926 217.043 59.194 221.849 59.194C226.277 59.194 228.815 57.304 228.815 54.118C228.815 52.012 227.735 50.554 223.253 49.582C218.825 48.61 215.963 47.962 213.425 46.828C209.591 45.1 207.431 42.508 207.431 37.972C207.431 31.546 211.805 26.956 220.553 26.956C229.625 26.956 234.701 31.87 234.971 38.728ZM245.051 64H237.545V56.71H245.051V64Z" fill="white"/>
<path d="M103.233 14.7273C103.233 16.2803 102.949 17.6155 102.381 18.733C101.813 19.8456 101.034 20.7027 100.044 21.304C99.0592 21.9006 97.9394 22.1989 96.6847 22.1989C95.4252 22.1989 94.3007 21.9006 93.3111 21.304C92.3262 20.7027 91.5497 19.8433 90.9815 18.7259C90.4134 17.6084 90.1293 16.2756 90.1293 14.7273C90.1293 13.1742 90.4134 11.8414 90.9815 10.7287C91.5497 9.61127 92.3262 8.75426 93.3111 8.15767C94.3007 7.55634 95.4252 7.25568 96.6847 7.25568C97.9394 7.25568 99.0592 7.55634 100.044 8.15767C101.034 8.75426 101.813 9.61127 102.381 10.7287C102.949 11.8414 103.233 13.1742 103.233 14.7273ZM101.06 14.7273C101.06 13.5436 100.868 12.5469 100.484 11.7372C100.106 10.9228 99.5848 10.3073 98.9219 9.89062C98.2637 9.46922 97.518 9.25852 96.6847 9.25852C95.8466 9.25852 95.0985 9.46922 94.4403 9.89062C93.7822 10.3073 93.2614 10.9228 92.8778 11.7372C92.4991 12.5469 92.3097 13.5436 92.3097 14.7273C92.3097 15.911 92.4991 16.91 92.8778 17.7244C93.2614 18.5341 93.7822 19.1496 94.4403 19.571C95.0985 19.9877 95.8466 20.196 96.6847 20.196C97.518 20.196 98.2637 19.9877 98.9219 19.571C99.5848 19.1496 100.106 18.5341 100.484 17.7244C100.868 16.91 101.06 15.911 101.06 14.7273ZM109.769 22V7.45455H114.954C116.081 7.45455 117.016 7.64867 117.759 8.03693C118.507 8.42519 119.066 8.96259 119.435 9.64915C119.805 10.331 119.989 11.1193 119.989 12.0142C119.989 12.9044 119.802 13.688 119.428 14.3651C119.059 15.0374 118.5 15.5606 117.752 15.9347C117.009 16.3087 116.074 16.4957 114.947 16.4957H111.019V14.6065H114.748C115.458 14.6065 116.036 14.5047 116.481 14.3011C116.931 14.0975 117.26 13.8016 117.468 13.4134C117.676 13.0251 117.78 12.5587 117.78 12.0142C117.78 11.465 117.674 10.9891 117.461 10.5866C117.253 10.1842 116.923 9.87642 116.474 9.66335C116.029 9.44555 115.444 9.33665 114.719 9.33665H111.964V22H109.769ZM116.95 15.4375L120.543 22H118.043L114.521 15.4375H116.95ZM136.303 12.0497C136.166 11.6188 135.982 11.233 135.75 10.892C135.522 10.5464 135.25 10.2528 134.933 10.0114C134.616 9.76515 134.253 9.57812 133.846 9.45028C133.444 9.32244 133.001 9.25852 132.518 9.25852C131.699 9.25852 130.96 9.46922 130.302 9.89062C129.644 10.312 129.123 10.9299 128.74 11.7443C128.361 12.554 128.171 13.5459 128.171 14.7202C128.171 15.8991 128.363 16.8958 128.747 17.7102C129.13 18.5246 129.656 19.1425 130.323 19.5639C130.991 19.9853 131.751 20.196 132.603 20.196C133.394 20.196 134.083 20.035 134.67 19.7131C135.262 19.3911 135.719 18.9366 136.041 18.3494C136.367 17.7576 136.531 17.0616 136.531 16.2614L137.099 16.3679H132.937V14.5568H138.654V16.2116C138.654 17.4332 138.394 18.4938 137.873 19.3935C137.357 20.2884 136.642 20.9796 135.728 21.4673C134.819 21.955 133.777 22.1989 132.603 22.1989C131.287 22.1989 130.132 21.8958 129.137 21.2898C128.148 20.6837 127.376 19.8243 126.822 18.7116C126.268 17.5942 125.991 16.2685 125.991 14.7344C125.991 13.5743 126.152 12.5327 126.474 11.6094C126.796 10.6861 127.248 9.90246 127.83 9.25852C128.418 8.60985 129.107 8.11506 129.897 7.77415C130.693 7.4285 131.562 7.25568 132.504 7.25568C133.29 7.25568 134.021 7.37169 134.698 7.60369C135.38 7.8357 135.986 8.16477 136.517 8.59091C137.052 9.01705 137.494 9.52367 137.845 10.1108C138.195 10.6932 138.432 11.3395 138.555 12.0497H136.303ZM146.02 22H143.69L148.925 7.45455H151.46L156.694 22H154.365L150.253 10.0966H150.139L146.02 22ZM146.41 16.304H153.967V18.1506H146.41V16.304ZM174.335 7.45455V22H172.318L164.924 11.3324H164.789V22H162.595V7.45455H164.626L172.027 18.1364H172.162V7.45455H174.335ZM183.531 7.45455V22H181.336V7.45455H183.531ZM190.151 22V20.5369L197.8 9.34375H190.087V7.45455H200.484V8.91761L192.835 20.1108H200.548V22H190.151ZM207.1 22V7.45455H216.22V9.34375H209.295V13.7756H215.744V15.6577H209.295V20.1108H216.305V22H207.1ZM222.951 22V7.45455H228.136C229.263 7.45455 230.198 7.64867 230.941 8.03693C231.689 8.42519 232.248 8.96259 232.617 9.64915C232.987 10.331 233.171 11.1193 233.171 12.0142C233.171 12.9044 232.984 13.688 232.61 14.3651C232.241 15.0374 231.682 15.5606 230.934 15.9347C230.191 16.3087 229.256 16.4957 228.129 16.4957H224.201V14.6065H227.93C228.64 14.6065 229.218 14.5047 229.663 14.3011C230.113 14.0975 230.442 13.8016 230.65 13.4134C230.858 13.0251 230.962 12.5587 230.962 12.0142C230.962 11.465 230.856 10.9891 230.643 10.5866C230.435 10.1842 230.105 9.87642 229.656 9.66335C229.211 9.44555 228.626 9.33665 227.901 9.33665H225.146V22H222.951ZM230.132 15.4375L233.725 22H231.225L227.703 15.4375H230.132Z" fill="white"/>
</svg>
