<svg width="393" height="33" viewBox="0 0 393 33" fill="none" xmlns="http://www.w3.org/2000/svg">
<path d="M58.9515 15.3479H56.2291C56.0847 13.9454 55.2391 13.2648 53.5067 13.2648C51.898 13.2648 51.0524 13.8423 51.0524 14.8735C51.0524 15.7397 51.6505 16.2347 53.1767 16.6059C54.7235 16.9772 56.2291 17.3484 57.2397 17.8021C58.4359 18.3384 59.3846 19.184 59.3846 21.1226C59.3846 24.1338 57.1159 25.4744 53.9192 25.4744C50.5368 25.4744 48.1856 23.9688 48.1237 20.8958H50.8874C50.9286 22.2982 52.1042 23.1644 53.9398 23.1644C55.631 23.1644 56.6003 22.4426 56.6003 21.2258C56.6003 20.4214 56.1878 19.8646 54.476 19.4933C52.7848 19.1221 51.6917 18.8746 50.7224 18.4415C49.2581 17.7815 48.4331 16.7916 48.4331 15.0591C48.4331 12.6048 50.1037 10.8518 53.4448 10.8518C56.9097 10.8518 58.8483 12.7286 58.9515 15.3479ZM70.4902 25H60.0956V11.3055H70.1603V13.6979H62.8799V16.6266H69.5828V19.0396H62.8799V22.5663H70.4902V25ZM78.889 19.8233L77.1772 14.3785H77.1565L75.4035 19.8233H78.889ZM83.6944 25H80.5802L79.7139 22.1745H74.661L73.6917 25H70.6599L75.5478 11.3055H78.8683L83.6944 25ZM87.4405 25H84.5737V13.6979H80.4488V11.3055H91.5859V13.6979H87.4405V25ZM102.295 15.3479H99.5722C99.4278 13.9454 98.5822 13.2648 96.8498 13.2648C95.2411 13.2648 94.3955 13.8423 94.3955 14.8735C94.3955 15.7397 94.9936 16.2347 96.5198 16.6059C98.0666 16.9772 99.5722 17.3484 100.583 17.8021C101.779 18.3384 102.728 19.184 102.728 21.1226C102.728 24.1338 100.459 25.4744 97.2623 25.4744C93.8799 25.4744 91.5287 23.9688 91.4668 20.8958H94.2305C94.2717 22.2982 95.4473 23.1644 97.2829 23.1644C98.9741 23.1644 99.9434 22.4426 99.9434 21.2258C99.9434 20.4214 99.5309 19.8646 97.8191 19.4933C96.1279 19.1221 95.0348 18.8746 94.0655 18.4415C92.6012 17.7815 91.7762 16.7916 91.7762 15.0591C91.7762 12.6048 93.4468 10.8518 96.7879 10.8518C100.253 10.8518 102.191 12.7286 102.295 15.3479ZM116.519 20.442V11.3055H119.447V20.442C119.447 23.7625 117.406 25.4744 113.817 25.4744C110.497 25.4744 108.414 23.9069 108.414 20.607V11.3055H111.322V20.3389C111.322 22.0301 112.229 23.1026 113.776 23.1026C115.611 23.1026 116.519 22.2364 116.519 20.442ZM131.656 25H129.016L123.159 15.8016V25H120.498V11.3055H123.53L128.975 20.1121V11.3055H131.656V25ZM140.5 19.8233L138.788 14.3785H138.767L137.014 19.8233H140.5ZM145.305 25H142.191L141.325 22.1745H136.272L135.303 25H132.271L137.159 11.3055H140.479L145.305 25ZM157.094 25H154.454L148.596 15.8016V25H145.936V11.3055H148.968L154.412 20.1121V11.3055H157.094V25ZM169.279 25H166.639L160.782 15.8016V25H158.121V11.3055H161.153L166.598 20.1121V11.3055H169.279V25ZM176.72 23.0201C178.783 23.0201 180.433 21.5764 180.433 18.3384C180.433 15.1004 179.113 13.3886 176.72 13.3886C174.307 13.3886 172.967 15.1004 172.967 18.3384C172.967 21.5764 174.349 23.0201 176.72 23.0201ZM176.72 25.4744C172.513 25.4744 170.141 22.8963 170.141 18.2765C170.141 13.6361 172.513 10.8518 176.72 10.8518C180.928 10.8518 183.258 13.6361 183.258 18.3384C183.258 23.0407 180.928 25.4744 176.72 25.4744ZM192.228 20.442V11.3055H195.157V20.442C195.157 23.7625 193.115 25.4744 189.527 25.4744C186.206 25.4744 184.123 23.9069 184.123 20.607V11.3055H187.031V20.3389C187.031 22.0301 187.938 23.1026 189.485 23.1026C191.321 23.1026 192.228 22.2364 192.228 20.442ZM207.365 25H204.725L198.868 15.8016V25H196.207V11.3055H199.239L204.684 20.1121V11.3055H207.365V25ZM217.591 20.2977H220.458C219.88 23.4119 217.735 25.4744 214.559 25.4744C210.971 25.4744 208.228 23.0201 208.228 18.3178C208.228 13.6773 210.682 10.8518 214.601 10.8518C218.024 10.8518 220.19 13.0379 220.458 15.8016H217.591C217.199 14.2548 215.982 13.3267 214.621 13.3267C212.249 13.3267 211.136 15.1622 211.136 18.1528C211.136 21.1845 212.249 22.9788 214.477 22.9788C216.168 22.9788 217.199 22.0095 217.591 20.2977ZM231.436 25H221.041V11.3055H231.106V13.6979H223.825V16.6266H230.528V19.0396H223.825V22.5663H231.436V25ZM234.802 22.6695H237.174C239.669 22.6695 240.742 21.102 240.742 18.0084C240.742 14.9148 239.669 13.6773 236.926 13.6773H234.802V22.6695ZM237.751 25H232.018V11.3055H237.318C241.031 11.3055 243.671 13.8423 243.671 18.0084C243.671 22.1745 241.299 25 237.751 25ZM251.15 25H248.943L252.861 11.3055H255.109L251.15 25ZM267.092 23.0201C269.155 23.0201 270.805 21.5764 270.805 18.3384C270.805 15.1004 269.485 13.3886 267.092 13.3886C264.679 13.3886 263.339 15.1004 263.339 18.3384C263.339 21.5764 264.721 23.0201 267.092 23.0201ZM267.092 25.4744C262.885 25.4744 260.513 22.8963 260.513 18.2765C260.513 13.6361 262.885 10.8518 267.092 10.8518C271.3 10.8518 273.63 13.6361 273.63 18.3384C273.63 23.0407 271.3 25.4744 267.092 25.4744ZM282.6 20.442V11.3055H285.529V20.442C285.529 23.7625 283.487 25.4744 279.898 25.4744C276.578 25.4744 274.495 23.9069 274.495 20.607V11.3055H277.403V20.3389C277.403 22.0301 278.31 23.1026 279.857 23.1026C281.693 23.1026 282.6 22.2364 282.6 20.442ZM293.179 25H290.312V13.6979H286.188V11.3055H297.325V13.6979H293.179V25ZM309.388 23.0201C311.451 23.0201 313.101 21.5764 313.101 18.3384C313.101 15.1004 311.781 13.3886 309.388 13.3886C306.975 13.3886 305.635 15.1004 305.635 18.3384C305.635 21.5764 307.016 23.0201 309.388 23.0201ZM309.388 25.4744C305.181 25.4744 302.809 22.8963 302.809 18.2765C302.809 13.6361 305.181 10.8518 309.388 10.8518C313.596 10.8518 315.926 13.6361 315.926 18.3384C315.926 23.0407 313.596 25.4744 309.388 25.4744ZM325.68 19.2252H319.658V25H316.791V11.3055H326.546V13.6979H319.658V16.8122H325.68V19.2252ZM342.655 15.3479H339.933C339.789 13.9454 338.943 13.2648 337.211 13.2648C335.602 13.2648 334.756 13.8423 334.756 14.8735C334.756 15.7397 335.354 16.2347 336.881 16.6059C338.427 16.9772 339.933 17.3484 340.944 17.8021C342.14 18.3384 343.089 19.184 343.089 21.1226C343.089 24.1338 340.82 25.4744 337.623 25.4744C334.241 25.4744 331.89 23.9688 331.828 20.8958H334.591C334.633 22.2982 335.808 23.1644 337.644 23.1644C339.335 23.1644 340.304 22.4426 340.304 21.2258C340.304 20.4214 339.892 19.8646 338.18 19.4933C336.489 19.1221 335.396 18.8746 334.426 18.4415C332.962 17.7815 332.137 16.7916 332.137 15.0591C332.137 12.6048 333.808 10.8518 337.149 10.8518C340.614 10.8518 342.552 12.7286 342.655 15.3479ZM349.755 25H346.888V13.6979H342.763V11.3055H353.9V13.6979H349.755V25ZM360.345 23.0201C362.407 23.0201 364.057 21.5764 364.057 18.3384C364.057 15.1004 362.737 13.3886 360.345 13.3886C357.932 13.3886 356.591 15.1004 356.591 18.3384C356.591 21.5764 357.973 23.0201 360.345 23.0201ZM360.345 25.4744C356.137 25.4744 353.765 22.8963 353.765 18.2765C353.765 13.6361 356.137 10.8518 360.345 10.8518C364.552 10.8518 366.882 13.6361 366.882 18.3384C366.882 23.0407 364.552 25.4744 360.345 25.4744ZM376.945 20.2977H379.812C379.235 23.4119 377.09 25.4744 373.914 25.4744C370.325 25.4744 367.582 23.0201 367.582 18.3178C367.582 13.6773 370.036 10.8518 373.955 10.8518C377.379 10.8518 379.544 13.0379 379.812 15.8016H376.945C376.554 14.2548 375.337 13.3267 373.976 13.3267C371.604 13.3267 370.49 15.1622 370.49 18.1528C370.49 21.1845 371.604 22.9788 373.831 22.9788C375.522 22.9788 376.554 22.0095 376.945 20.2977ZM392.296 25H388.81L384.747 18.8334L383.221 20.3389V25H380.395V11.3055H383.221V16.8741L388.46 11.3055H392.172L386.768 16.7091L392.296 25Z" fill="black"/>
<rect width="39" height="33" fill="#7F7F7F"/>
</svg>
